<?xml version="1.0" encoding="UTF-8"?>
<svg width="354px" height="269px" viewBox="0 0 354 269" version="1.1" xmlns="http://www.w3.org/2000/svg" xmlns:xlink="http://www.w3.org/1999/xlink">
    <!-- Generator: Sketch 52.4 (67378) - http://www.bohemiancoding.com/sketch -->
    <title>A / Illustrations / Pocket House</title>
    <desc>Created with Sketch.</desc>
    <defs>
        <polygon id="path-1" points="0 268.765182 354.137988 268.765182 354.137988 0.987246362 0 0.987246362"></polygon>
    </defs>
    <g id="Landing-Pages-de-Motivos---Desktop" stroke="none" stroke-width="1" fill="none" fill-rule="evenodd">
        <g id="Landing-Pages-de-Motivos-/-Desktop-/-Compras" transform="translate(-1143.000000, -653.000000)">
            <g id="A-/-Illustrations-/-Compras" transform="translate(1093.000000, 646.000000)">
                <g id="ilustra_compras" transform="translate(50.666667, 6.339286)">
                    <polygon id="Fill-1" fill="#824E9E" points="240.220802 73.2995951 226.871795 185.404858 353.230769 185.404858 339.884405 73.2995951"></polygon>
                    <polygon id="Fill-2" fill="#623B77" points="346.051282 178.218623 235.487179 178.218623 247.166655 80.48583 334.371806 80.48583"></polygon>
                    <polygon id="Fill-3" fill="#41274F" points="347.487179 136.538462 232.615385 136.538462 233.800722 126.477733 346.300517 126.477733"></polygon>
                    <g id="Group-51">
                        <path d="M259.636191,79.8695612 C259.636191,82.1593874 257.809724,84.0154637 255.555532,84.0154637 C253.301339,84.0154637 251.473544,82.1593874 251.473544,79.8695612 C251.473544,77.5797351 253.301339,75.7249892 255.555532,75.7249892 C257.809724,75.7249892 259.636191,77.5797351 259.636191,79.8695612" id="Fill-4" fill="#41274F"></path>
                        <path d="M329.792977,79.8695612 C329.792977,82.1593874 327.965182,84.0154637 325.712318,84.0154637 C323.458125,84.0154637 321.63033,82.1593874 321.63033,79.8695612 C321.63033,77.5797351 323.458125,75.7249892 325.712318,75.7249892 C327.965182,75.7249892 329.792977,77.5797351 329.792977,79.8695612" id="Fill-6" fill="#41274F"></path>
                        <path d="M255.365712,78.6780799 L255.365712,70.1813747 C255.365712,50.4909988 271.22343,34.3810541 290.605232,34.3810541 C309.988364,34.3810541 325.846081,50.4909988 325.846081,70.1813747 L325.846081,78.6780799" id="Stroke-8" stroke="#FFCF58" stroke-width="2.657" stroke-linecap="round" stroke-linejoin="round"></path>
                        <polygon id="Fill-10" fill="#FFCF58" points="127.008524 185.219791 0.000664169788 185.219791 13.4155655 72.5433151 113.590966 72.5433151"></polygon>
                        <polygon id="Fill-12" fill="#FFC32E" points="118.544212 177.710865 8.46471111 177.710865 20.0929958 80.0533061 106.915927 80.0533061"></polygon>
                        <polygon id="Fill-14" fill="#BF9223" points="121.111361 135.696879 5.89782772 135.696879 7.08669164 125.699347 119.921169 125.699347"></polygon>
                        <path d="M32.5069933,79.8695612 C32.5069933,82.1593874 30.679198,84.0154637 28.4263341,84.0154637 C26.1721418,84.0154637 24.3443466,82.1593874 24.3443466,79.8695612 C24.3443466,77.5797351 26.1721418,75.7249892 28.4263341,75.7249892 C30.679198,75.7249892 32.5069933,77.5797351 32.5069933,79.8695612" id="Fill-16" fill="#BF9223"></path>
                        <path d="M102.662451,79.8695612 C102.662451,82.1593874 100.835984,84.0154637 98.5831201,84.0154637 C96.3275995,84.0154637 94.5011326,82.1593874 94.5011326,79.8695612 C94.5011326,77.5797351 96.3275995,75.7249892 98.5831201,75.7249892 C100.835984,75.7249892 102.662451,77.5797351 102.662451,79.8695612" id="Fill-18" fill="#BF9223"></path>
                        <path d="M28.2353189,78.6780799 L28.2353189,70.1813747 C28.2353189,50.4909988 44.0930367,34.3810541 63.4761678,34.3810541 C82.8579705,34.3810541 98.7170167,50.4909988 98.7170167,70.1813747 L98.7170167,78.6780799" id="Stroke-20" stroke="#FFCF58" stroke-width="2.657" stroke-linecap="round" stroke-linejoin="round"></path>
                        <polygon id="Fill-22" fill="#51C9C7" points="267.748892 218.143659 86.3893613 218.143659 105.546675 57.2491126 248.59025 57.2491126"></polygon>
                        <polygon id="Fill-24" fill="#29BDBA" points="255.662861 207.421525 98.4751261 207.421525 115.079371 67.9709807 239.058617 67.9709807"></polygon>
                        <polygon id="Fill-26" fill="#135E5D" points="259.32868 147.427282 94.8085104 147.427282 96.508785 133.152126 257.628405 133.152126"></polygon>
                        <path d="M132.806992,67.7103317 C132.806992,70.979421 130.198133,73.6298183 126.979567,73.6298183 C123.761,73.6298183 121.153469,70.979421 121.153469,67.7103317 C121.153469,64.4412423 123.761,61.7908451 126.979567,61.7908451 C130.198133,61.7908451 132.806992,64.4412423 132.806992,67.7103317" id="Fill-28" fill="#135E5D"></path>
                        <path d="M232.98505,67.7103317 C232.98505,70.979421 230.376191,73.6298183 227.157624,73.6298183 C223.939057,73.6298183 221.331527,70.979421 221.331527,67.7103317 C221.331527,64.4412423 223.939057,61.7908451 227.157624,61.7908451 C230.376191,61.7908451 232.98505,64.4412423 232.98505,67.7103317" id="Fill-30" fill="#135E5D"></path>
                        <path d="M126.707523,66.006866 L126.707523,53.8765088 C126.707523,25.7599452 149.353056,2.75524227 177.029011,2.75524227 C204.706294,2.75524227 227.350499,25.7599452 227.350499,53.8765088 L227.350499,66.006866" id="Stroke-32" stroke="#FFCF58" stroke-width="2.657" stroke-linecap="round" stroke-linejoin="round"></path>
                        <path d="M149.570771,250.658259 L82.8310052,250.658259 C81.3698317,250.658259 80.1743261,249.46079 80.1743261,247.997218 L80.1743261,191.901134 C80.1743261,190.437561 81.3698317,189.240093 82.8310052,189.240093 L149.570771,189.240093 C151.031944,189.240093 152.22745,190.437561 152.22745,191.901134 L152.22745,247.997218 C152.22745,249.46079 151.031944,250.658259 149.570771,250.658259" id="Fill-34" fill="#824E9E"></path>
                        <path d="M106.472395,162.78535 C104.906282,162.527229 103.313603,162.83857 101.937443,163.632891 C100.565268,164.424551 99.4972834,165.745758 98.9619625,167.247916 C98.4359401,168.720802 98.42,170.330733 98.9035156,171.818255 C99.3724195,173.259209 100.336794,174.537839 101.584105,175.372075 C102.24429,175.812478 102.94831,176.118498 103.71609,176.307432 C104.538332,176.50834 105.388469,176.569544 106.230637,176.593493 C108.130162,176.648045 110.03633,176.423187 111.910617,176.134464 C113.424924,175.900292 114.928604,175.604917 116.430956,175.301558 C116.786951,175.23104 116.93971,174.89708 116.765698,174.572433 C115.799995,172.789535 114.822337,171.011959 113.734427,169.299579 C112.609323,167.532647 111.363341,165.75108 109.775975,164.375322 C108.823556,163.550399 107.711735,162.998233 106.472395,162.78535" id="Fill-36" fill="#FFC32E"></path>
                        <path d="M122.626465,164.375721 C121.039099,165.750149 119.793117,167.533047 118.668013,169.299978 C117.578775,171.011028 116.601117,172.788603 115.636742,174.572832 C115.461401,174.896148 115.615489,175.230109 115.971484,175.301957 C117.473836,175.603985 118.977516,175.900691 120.491823,176.134863 C122.36611,176.423586 124.270949,176.648444 126.171803,176.593893 C127.015299,176.569943 127.864108,176.508739 128.68635,176.307831 C129.455459,176.118897 130.156822,175.812877 130.817007,175.372475 C132.064318,174.538238 133.03002,173.259608 133.498924,171.818654 C133.98244,170.331132 133.965172,168.721202 133.440477,167.248315 C132.903828,165.744827 131.837172,164.42495 130.463668,163.63196 C129.088837,162.83897 127.494829,162.526297 125.928717,162.785749 C124.692033,162.998632 123.578884,163.550798 122.626465,164.375721" id="Fill-38" fill="#FFC32E"></path>
                        <path d="M157.604435,203.331238 L74.7970747,203.331238 C73.3372295,203.331238 72.1403955,202.1351 72.1403955,200.670197 L72.1403955,177.80919 C72.1403955,176.346948 73.3372295,175.148149 74.7970747,175.148149 L157.604435,175.148149 C159.066937,175.148149 160.261115,176.346948 160.261115,177.80919 L160.261115,200.670197 C160.261115,202.1351 159.066937,203.331238 157.604435,203.331238" id="Fill-40" fill="#9B71B1"></path>
                        <mask id="mask-2" fill="white">
                            <use xlink:href="#path-1"></use>
                        </mask>
                        <g id="Clip-43"></g>
                        <polygon id="Fill-42" fill="#FFCF58" mask="url(#mask-2)" points="108.118871 203.331504 124.283436 203.331504 124.283436 174.80381 108.118871 174.80381"></polygon>
                        <polygon id="Fill-44" fill="#FFC32E" mask="url(#mask-2)" points="108.118871 250.658126 124.283436 250.658126 124.283436 203.331504 108.118871 203.331504"></polygon>
                        <path d="M215.710126,268.765847 L148.971689,268.765847 C147.509188,268.765847 146.31501,267.568379 146.31501,266.104806 L146.31501,233.123859 C146.31501,231.658956 147.509188,230.462817 148.971689,230.462817 L215.710126,230.462817 C217.172628,230.462817 218.366805,231.658956 218.366805,233.123859 L218.366805,266.104806 C218.366805,267.568379 217.172628,268.765847 215.710126,268.765847" id="Fill-45" fill="#FFC32E" mask="url(#mask-2)"></path>
                        <path d="M172.61175,204.006877 C171.045638,203.750086 169.452959,204.060098 168.076799,204.855749 C166.705953,205.646078 165.637968,206.967285 165.101318,208.469443 C164.575296,209.94233 164.559356,211.55359 165.0442,213.039782 C165.511775,214.482066 166.47615,215.759366 167.723461,216.593603 C168.383645,217.035336 169.087665,217.341355 169.855446,217.528959 C170.677688,217.729867 171.527825,217.791071 172.369993,217.816351 C174.269518,217.869572 176.175685,217.644714 178.051301,217.355991 C179.56428,217.12315 181.06796,216.826444 182.570312,216.524416 C182.926307,216.452567 183.080395,216.118607 182.905054,215.79396 C181.939351,214.011062 180.961693,212.233486 179.873783,210.522437 C178.748679,208.754175 177.502697,206.972607 175.915331,205.59818 C174.962911,204.773257 173.851091,204.21976 172.61175,204.006877" id="Fill-46" fill="#824E9E" mask="url(#mask-2)"></path>
                        <path d="M188.765821,205.598579 C187.179783,206.971676 185.932472,208.754574 184.808697,210.522836 C183.719459,212.232555 182.741801,214.010131 181.776098,215.794359 C181.600757,216.117675 181.756173,216.451636 182.110839,216.524815 C183.613192,216.825512 185.116872,217.123549 186.631179,217.35639 C188.506795,217.645113 190.411633,217.869971 192.311159,217.81675 C193.154655,217.79147 194.003464,217.730266 194.825706,217.529358 C195.594814,217.341754 196.297506,217.035735 196.957691,216.594002 C198.205002,215.759765 199.169376,214.482465 199.63828,213.040181 C200.121796,211.553989 200.105856,209.942729 199.581162,208.469842 C199.043184,206.966354 197.976527,205.646477 196.604353,204.854818 C195.228193,204.060497 193.635514,203.749155 192.069401,204.007276 C190.831389,204.220159 189.719569,204.773656 188.765821,205.598579" id="Fill-47" fill="#824E9E" mask="url(#mask-2)"></path>
                        <path d="M223.74512,244.553963 L140.93643,244.553963 C139.476585,244.553963 138.279751,243.356494 138.279751,241.892922 L138.279751,219.031915 C138.279751,217.568342 139.476585,216.370873 140.93643,216.370873 L223.74512,216.370873 C225.206293,216.370873 226.401799,217.568342 226.401799,219.031915 L226.401799,241.892922 C226.401799,243.356494 225.206293,244.553963 223.74512,244.553963" id="Fill-48" fill="#FFCF58" mask="url(#mask-2)"></path>
                        <polygon id="Fill-49" fill="#9B71B1" mask="url(#mask-2)" points="174.258227 244.553697 190.422792 244.553697 190.422792 216.026003 174.258227 216.026003"></polygon>
                        <polygon id="Fill-50" fill="#824E9E" mask="url(#mask-2)" points="174.258227 268.765182 190.422792 268.765182 190.422792 244.553697 174.258227 244.553697"></polygon>
                    </g>
                </g>
            </g>
        </g>
    </g>
</svg>