<svg height="512pt" viewBox="-1 0 512 512" width="512pt" xmlns="http://www.w3.org/2000/svg"><path d="m296.167969 80.332031h-241c-30.417969 0-55.167969 24.75-55.167969 55.167969v321.332031c0 30.421875 24.75 55.167969 55.167969 55.167969h176.730469c8.285156 0 15-6.714844 15-15 0-6.664062-4.347657-12.308594-10.363282-14.261719l95.164063-292.808593c1.460937.472656 3.015625.734374 4.636719.734374 8.28125 0 15-6.714843 15-15v-40.164062c0-30.417969-24.75-55.167969-55.167969-55.167969zm0 0" fill="#00acb3"/><path d="m296.167969 80.332031h-121.480469v431.667969h57.214844c8.28125 0 15-6.714844 15-15 0-6.664062-4.351563-12.308594-10.367188-14.261719l95.164063-292.808593c1.460937.472656 3.019531.734374 4.636719.734374 8.28125 0 15-6.714843 15-15v-40.164062c0-30.417969-24.75-55.167969-55.167969-55.167969zm0 0" fill="#008186"/><path d="m509.976562 456.136719-12.054687-241.101563c-1.496094-29.980468-27.136719-54.367187-57.152344-54.367187h-192.800781c-30.019531 0-55.65625 24.390625-57.15625 54.367187l-12.054688 241.101563c-.738281 14.8125 4.410157 28.8125 14.5 39.417969 10.085938 10.605468 23.8125 16.445312 38.644532 16.445312h224.933594c14.832031 0 28.558593-5.839844 38.644531-16.445312 10.085937-10.605469 15.238281-24.605469 14.496093-39.417969zm0 0" fill="#54e360"/><path d="m509.976562 456.136719-12.054687-241.101563c-1.496094-29.980468-27.136719-54.367187-57.152344-54.367187h-96.402343v351.332031h112.46875c14.832031 0 28.558593-5.839844 38.644531-16.445312 10.085937-10.605469 15.238281-24.605469 14.496093-39.417969zm0 0" fill="#00ab5e"/><path d="m235.917969 110.332031c-8.285157 0-15-6.714843-15-15v-20.082031c0-24.949219-20.300781-45.25-45.25-45.25-24.953125 0-45.25 20.300781-45.25 45.25v20.082031c0 8.285157-6.714844 15-15 15-8.285157 0-15-6.714843-15-15v-20.082031c0-41.492188 33.757812-75.25 75.25-75.25 41.492187 0 75.25 33.757812 75.25 75.25v20.082031c0 8.285157-6.714844 15-15 15zm0 0" fill="#fef4f5"/><path d="m344.367188 351.332031c-41.492188 0-75.25-33.757812-75.25-75.25v-20.082031c0-8.285156 6.714843-15 15-15 8.285156 0 15 6.714844 15 15v20.082031c0 24.953125 20.300781 45.25 45.25 45.25 24.953124 0 45.25-20.296875 45.25-45.25v-20.082031c0-8.285156 6.714843-15 15-15 8.285156 0 15 6.714844 15 15v20.082031c0 41.492188-33.757813 75.25-75.25 75.25zm0 0" fill="#fef4f5"/><g fill="#d5eded"><path d="m175.667969 0c-.328125 0-.652344.0195312-.980469.0234375v30.0000005c.328125-.007813.652344-.023438.980469-.023438 24.949219 0 45.25 20.300781 45.25 45.25v20.082031c0 8.285157 6.714843 15 15 15 8.285156 0 15-6.714843 15-15v-20.082031c0-41.492188-33.757813-75.25-75.25-75.25zm0 0"/><path d="m404.617188 241c-8.285157 0-15 6.714844-15 15v20.082031c0 24.953125-20.296876 45.25-45.25 45.25v30c41.492187 0 75.25-33.757812 75.25-75.25v-20.082031c0-8.285156-6.714844-15-15-15zm0 0"/></g></svg>